<svg width="17" height="18" viewBox="0 0 17 18" fill="none" xmlns="http://www.w3.org/2000/svg">
<path d="M3.8186 5.50714H0.514181C0.230177 5.50714 0 5.73745 0 6.02132V17.0363C0 17.3203 0.230177 17.5505 0.514181 17.5505H3.8186C4.1026 17.5505 4.33278 17.3203 4.33278 17.0363V6.02132C4.33278 5.73745 4.1026 5.50714 3.8186 5.50714ZM3.30442 16.5221H1.02836V6.5355H3.30442V16.5221Z" fill="#BBCDFF"/>
<path d="M2.16652 0C0.971856 0 0 0.971856 0 2.16626C0 3.36093 0.971856 4.33265 2.16652 4.33265C3.36106 4.33265 4.33278 3.36079 4.33278 2.16626C4.33278 0.971856 3.36106 0 2.16652 0ZM2.16652 3.30428C1.53893 3.30428 1.02836 2.79385 1.02836 2.16626C1.02836 1.53879 1.53893 1.02836 2.16652 1.02836C2.79399 1.02836 3.30442 1.53879 3.30442 2.16626C3.30442 2.79385 2.79399 3.30428 2.16652 3.30428Z" fill="#BBCDFF"/>
<path d="M12.0801 5.43451C11.2986 5.43451 10.5282 5.62291 9.83836 5.97534C9.81493 5.71302 9.59466 5.50722 9.32619 5.50722H6.02151C5.73763 5.50722 5.50732 5.73753 5.50732 6.0214V17.0364C5.50732 17.3204 5.73763 17.5506 6.02151 17.5506H9.32619C9.6102 17.5506 9.84037 17.3204 9.84037 17.0364V10.9782C9.84037 10.1989 10.4745 9.56483 11.2538 9.56483C12.0331 9.56483 12.667 10.1989 12.667 10.9782V17.0364C12.667 17.3204 12.8973 17.5506 13.1812 17.5506H16.4858C16.7698 17.5506 16.9999 17.3204 16.9999 17.0364V10.3543C16.9999 7.64147 14.793 5.43451 12.0801 5.43451ZM15.9716 16.5222H13.6955V10.9782C13.6955 9.63178 12.6002 8.53647 11.254 8.53647C9.90746 8.53647 8.81201 9.63178 8.81201 10.9782V16.5222H6.53582V6.53558H8.81201V6.91546C8.81201 7.11323 8.92542 7.29346 9.10378 7.37902C9.282 7.46459 9.49357 7.44022 9.64796 7.31663C10.3442 6.75812 11.1854 6.46287 12.0801 6.46287C14.2259 6.46287 15.9716 8.20854 15.9716 10.3543V16.5222Z" fill="#BBCDFF"/>
</svg>
