<svg width="21" height="21" viewBox="0 0 21 21" fill="none" xmlns="http://www.w3.org/2000/svg">
<path fill-rule="evenodd" clip-rule="evenodd" d="M2.6162 4.26432C2.89299 3.80515 4.41891 2.1383 5.50629 2.18862C5.8316 2.21647 6.11917 2.41236 6.35282 2.6406H6.35372C6.88932 3.16537 8.42603 5.14583 8.5123 5.56277C8.72528 6.58534 7.5058 7.17481 7.87874 8.20548C8.82952 10.5319 10.4678 12.17 12.7953 13.1198C13.8252 13.4936 14.4147 12.2751 15.4374 12.4872C15.8543 12.5743 17.8359 14.11 18.3598 14.6465V14.6465C18.5872 14.8792 18.7849 15.1676 18.8118 15.4929C18.8523 16.6386 17.0819 18.1851 16.7368 18.3827C15.9226 18.9659 14.8604 18.9551 13.5655 18.3531C9.95195 16.8498 4.17717 11.1843 2.64586 7.4345C2.05993 6.14684 2.02039 5.07753 2.6162 4.26432Z" stroke="#ec547f" stroke-opacity="0.43" stroke-width="1.5" stroke-linecap="round" stroke-linejoin="round"/>
<path d="M12.7448 2.40625C15.984 2.76588 18.5416 5.32088 18.9056 8.55925" stroke="#ec547f" stroke-opacity="0.43" stroke-width="1.5" stroke-linecap="round" stroke-linejoin="round"/>
<path d="M12.7448 5.50635C14.2935 5.80822 15.5036 7.01835 15.8055 8.5671" stroke="#ec547f" stroke-opacity="0.43" stroke-width="1.5" stroke-linecap="round" stroke-linejoin="round"/>
</svg>
